name ../VV_Laxity/vv_30.mot
datacolumns  10
datarows 58
range   7.00000000 7.57000000
cursor 1.0 1.0 0.0
keys m_key
wrap
enforce_loops no
enforce_constraints no
calc_derivatives -1.000000
event_color 0.000000 0.000000 0.000000
endheader
            time femur_r_force_vx femur_r_force_vy femur_r_force_vz femur_r_force_px femur_r_force_py femur_r_force_pz femur_r_torque_x femur_r_torque_y femur_r_torque_z 
      7.00000000       0.00000000       0.00000000       0.00000000      -0.03798529      -0.50443412       0.00000000      -7.78181203       4.49283127       0.00000000 
      7.01000000       0.00000000       0.00000000       0.00000000      -0.03798529      -0.50443412       0.00000000      -7.79480691       4.50033387       0.00000000 
      7.02000000       0.00000000       0.00000000       0.00000000      -0.03798529      -0.50443412       0.00000000      -7.80771565       4.50778673       0.00000000 
      7.03000000       0.00000000       0.00000000       0.00000000      -0.03798529      -0.50443412       0.00000000      -7.82053790       4.51518966       0.00000000 
      7.04000000       0.00000000       0.00000000       0.00000000      -0.03798529      -0.50443412       0.00000000      -7.83327337       4.52254249       0.00000000 
      7.05000000       0.00000000       0.00000000       0.00000000      -0.03798529      -0.50443412       0.00000000      -7.84592172       4.52984501       0.00000000 
      7.06000000       0.00000000       0.00000000       0.00000000      -0.03798529      -0.50443412       0.00000000      -7.85848264       4.53709707       0.00000000 
      7.07000000       0.00000000       0.00000000       0.00000000      -0.03798529      -0.50443412       0.00000000      -7.87095582       4.54429846       0.00000000 
      7.08000000       0.00000000       0.00000000       0.00000000      -0.03798529      -0.50443412       0.00000000      -7.88334096       4.55144903       0.00000000 
      7.09000000       0.00000000       0.00000000       0.00000000      -0.03798529      -0.50443412       0.00000000      -7.89563774       4.55854858       0.00000000 
      7.10000000       0.00000000       0.00000000       0.00000000      -0.03798529      -0.50443412       0.00000000      -7.90784586       4.56559694       0.00000000 
      7.11000000       0.00000000       0.00000000       0.00000000      -0.03798529      -0.50443412       0.00000000      -7.91996501       4.57259393       0.00000000 
      7.12000000       0.00000000       0.00000000       0.00000000      -0.03798529      -0.50443412       0.00000000      -7.93199490       4.57953939       0.00000000 
      7.13000000       0.00000000       0.00000000       0.00000000      -0.03798529      -0.50443412       0.00000000      -7.94393521       4.58643313       0.00000000 
      7.14000000       0.00000000       0.00000000       0.00000000      -0.03798529      -0.50443412       0.00000000      -7.95578567       4.59327500       0.00000000 
      7.15000000       0.00000000       0.00000000       0.00000000      -0.03798529      -0.50443412       0.00000000      -7.96754597       4.60006481       0.00000000 
      7.16000000       0.00000000       0.00000000       0.00000000      -0.03798529      -0.50443412       0.00000000      -7.97921581       4.60680240       0.00000000 
      7.17000000       0.00000000       0.00000000       0.00000000      -0.03798529      -0.50443412       0.00000000      -7.99079492       4.61348760       0.00000000 
      7.18000000       0.00000000       0.00000000       0.00000000      -0.03798529      -0.50443412       0.00000000      -8.00228299       4.62012024       0.00000000 
      7.19000000       0.00000000       0.00000000       0.00000000      -0.03798529      -0.50443412       0.00000000      -8.01367976       4.62670016       0.00000000 
      7.20000000       0.00000000       0.00000000       0.00000000      -0.03798529      -0.50443412       0.00000000      -8.02498492       4.63322720       0.00000000 
      7.21000000       0.00000000       0.00000000       0.00000000      -0.03798529      -0.50443412       0.00000000      -8.03619821       4.63970120       0.00000000 
      7.22000000       0.00000000       0.00000000       0.00000000      -0.03798529      -0.50443412       0.00000000      -8.04731933       4.64612198       0.00000000 
      7.23000000       0.00000000       0.00000000       0.00000000      -0.03798529      -0.50443412       0.00000000      -8.05834803       4.65248940       0.00000000 
      7.24000000       0.00000000       0.00000000       0.00000000      -0.03798529      -0.50443412       0.00000000      -8.06928401       4.65880330       0.00000000 
      7.25000000       0.00000000       0.00000000       0.00000000      -0.03798529      -0.50443412       0.00000000      -8.08012702       4.66506351       0.00000000 
      7.26000000       0.00000000       0.00000000       0.00000000      -0.03798529      -0.50443412       0.00000000      -8.09087677       4.67126988       0.00000000 
      7.27000000       0.00000000       0.00000000       0.00000000      -0.03798529      -0.50443412       0.00000000      -8.10153301       4.67742227       0.00000000 
      7.28000000       0.00000000       0.00000000       0.00000000      -0.03798529      -0.50443412       0.00000000      -8.11209547       4.68352050       0.00000000 
      7.29000000       0.00000000       0.00000000       0.00000000      -0.03798529      -0.50443412       0.00000000      -8.12256388       4.68956444       0.00000000 
      7.30000000       0.00000000       0.00000000       0.00000000      -0.03798529      -0.50443412       0.00000000      -8.13293798       4.69555393       0.00000000 
      7.31000000       0.00000000       0.00000000       0.00000000      -0.03798529      -0.50443412       0.00000000      -8.14321752       4.70148883       0.00000000 
      7.32000000       0.00000000       0.00000000       0.00000000      -0.03798529      -0.50443412       0.00000000      -8.15340225       4.70736898       0.00000000 
      7.33000000       0.00000000       0.00000000       0.00000000      -0.03798529      -0.50443412       0.00000000      -8.16349190       4.71319424       0.00000000 
      7.34000000       0.00000000       0.00000000       0.00000000      -0.03798529      -0.50443412       0.00000000      -8.17348623       4.71896447       0.00000000 
      7.35000000       0.00000000       0.00000000       0.00000000      -0.03798529      -0.50443412       0.00000000      -8.18338498       4.72467952       0.00000000 
      7.36000000       0.00000000       0.00000000       0.00000000      -0.03798529      -0.50443412       0.00000000      -8.19318792       4.73033925       0.00000000 
      7.37000000       0.00000000       0.00000000       0.00000000      -0.03798529      -0.50443412       0.00000000      -8.20289480       4.73594352       0.00000000 
      7.38000000       0.00000000       0.00000000       0.00000000      -0.03798529      -0.50443412       0.00000000      -8.21250537       4.74149219       0.00000000 
      7.39000000       0.00000000       0.00000000       0.00000000      -0.03798529      -0.50443412       0.00000000      -8.22201940       4.74698512       0.00000000 
      7.40000000       0.00000000       0.00000000       0.00000000      -0.03798529      -0.50443412       0.00000000      -8.23143666       4.75242217       0.00000000 
      7.41000000       0.00000000       0.00000000       0.00000000      -0.03798529      -0.50443412       0.00000000      -8.24075690       4.75780321       0.00000000 
      7.42000000       0.00000000       0.00000000       0.00000000      -0.03798529      -0.50443412       0.00000000      -8.24997990       4.76312811       0.00000000 
      7.43000000       0.00000000       0.00000000       0.00000000      -0.03798529      -0.50443412       0.00000000      -8.25910542       4.76839674       0.00000000 
      7.44000000       0.00000000       0.00000000       0.00000000      -0.03798529      -0.50443412       0.00000000      -8.26813324       4.77360895       0.00000000 
      7.45000000       0.00000000       0.00000000       0.00000000      -0.03798529      -0.50443412       0.00000000      -8.27706314       4.77876463       0.00000000 
      7.46000000       0.00000000       0.00000000       0.00000000      -0.03798529      -0.50443412       0.00000000      -8.28589489       4.78386364       0.00000000 
      7.47000000       0.00000000       0.00000000       0.00000000      -0.03798529      -0.50443412       0.00000000      -8.29462827       4.78890587       0.00000000 
      7.48000000       0.00000000       0.00000000       0.00000000      -0.03798529      -0.50443412       0.00000000      -8.30326307       4.79389117       0.00000000 
      7.49000000       0.00000000       0.00000000       0.00000000      -0.03798529      -0.50443412       0.00000000      -8.31179907       4.79881943       0.00000000 
      7.50000000       0.00000000       0.00000000       0.00000000      -0.03798529      -0.50443412       0.00000000      -8.32023606       4.80369053       0.00000000 
      7.51000000       0.00000000       0.00000000       0.00000000      -0.03798529      -0.50443412       0.00000000      -8.32857383       4.80850434       0.00000000 
      7.52000000       0.00000000       0.00000000       0.00000000      -0.03798529      -0.50443412       0.00000000      -8.33681217       4.81326075       0.00000000 
      7.53000000       0.00000000       0.00000000       0.00000000      -0.03798529      -0.50443412       0.00000000      -8.34495088       4.81795964       0.00000000 
      7.54000000       0.00000000       0.00000000       0.00000000      -0.03798529      -0.50443412       0.00000000      -8.35298975       4.82260088       0.00000000 
      7.55000000       0.00000000       0.00000000       0.00000000      -0.03798529      -0.50443412       0.00000000      -8.36092859       4.82718437       0.00000000 
      7.56000000       0.00000000       0.00000000       0.00000000      -0.03798529      -0.50443412       0.00000000      -8.36876719       4.83170999       0.00000000 
      7.57000000       0.00000000       0.00000000       0.00000000      -0.03798529      -0.50443412       0.00000000      -8.37650537       4.83617763       0.00000000 
